<svg id="Capa_1" data-name="Capa 1" xmlns="http://www.w3.org/2000/svg" viewBox="0 0 556 99"><defs><style>.cls-1{fill:#fff;}</style></defs><title>logo_alboomaker_white</title><path class="cls-1" d="M50.92,44.58A4.61,4.61,0,0,1,52.21,48V89.64a4.52,4.52,0,0,1-1.29,3.26,4.41,4.41,0,0,1-3.32,1.35A4.3,4.3,0,0,1,44.34,93a4.57,4.57,0,0,1-1.25-3.31V87.15a20.5,20.5,0,0,1-6.81,5.71A19.24,19.24,0,0,1,27,95.21a21.75,21.75,0,0,1-11.85-3.36,23,23,0,0,1-8.35-9.36A29.47,29.47,0,0,1,3.74,69a29.51,29.51,0,0,1,3-13.49,23.13,23.13,0,0,1,8.3-9.36A21.19,21.19,0,0,1,26.68,42.8a21.46,21.46,0,0,1,9.46,2.12,19.45,19.45,0,0,1,7,5.37V48a4.75,4.75,0,0,1,1.25-3.36,4.23,4.23,0,0,1,3.26-1.35A4.52,4.52,0,0,1,50.92,44.58ZM36,84.46a15.62,15.62,0,0,0,5.47-6.34,21.86,21.86,0,0,0,0-18.14A16,16,0,0,0,36,53.6a14.12,14.12,0,0,0-8-2.35,14.32,14.32,0,0,0-8,2.3,15.55,15.55,0,0,0-5.47,6.34,22.07,22.07,0,0,0,0,18.23A15.55,15.55,0,0,0,20,84.46a14.32,14.32,0,0,0,8,2.3A14.31,14.31,0,0,0,36,84.46Z"/><path class="cls-1" d="M74.29,92.9A4.45,4.45,0,0,1,71,94.25a4.26,4.26,0,0,1-3.21-1.35,4.49,4.49,0,0,1-1.3-3.26V27.83a4.59,4.59,0,0,1,4.61-4.6,4.25,4.25,0,0,1,3.21,1.34,4.5,4.5,0,0,1,1.3,3.26V89.64A4.44,4.44,0,0,1,74.29,92.9Z"/><path class="cls-1" d="M127.07,46.16a23.25,23.25,0,0,1,8.3,9.31,29.21,29.21,0,0,1,3,13.44,29.77,29.77,0,0,1-3,13.53,23.08,23.08,0,0,1-8.3,9.41,21.19,21.19,0,0,1-11.61,3.36A20.18,20.18,0,0,1,106.15,93a21.62,21.62,0,0,1-7-5.47v2.78a4.56,4.56,0,0,1-1.29,3.27,4.43,4.43,0,0,1-3.31,1.34,4.35,4.35,0,0,1-3.22-1.3A4.48,4.48,0,0,1,90,90.31V27.83a4.58,4.58,0,0,1,1.24-3.31,4.34,4.34,0,0,1,3.27-1.29,4.39,4.39,0,0,1,3.31,1.34,4.54,4.54,0,0,1,1.29,3.26V51.25a19.3,19.3,0,0,1,6.72-6,18.86,18.86,0,0,1,9.41-2.5A21.51,21.51,0,0,1,127.07,46.16Zm-4.89,38.25A15.85,15.85,0,0,0,127.7,78a20.62,20.62,0,0,0,2-9.07,20.31,20.31,0,0,0-2-9,15.59,15.59,0,0,0-5.52-6.34,15.11,15.11,0,0,0-16,0,15.55,15.55,0,0,0-5.52,6.29,20.25,20.25,0,0,0-2,9.07,20.56,20.56,0,0,0,2,9.12,15.75,15.75,0,0,0,5.52,6.38,14.84,14.84,0,0,0,16,0Z"/><path class="cls-1" d="M193.2,82.54A24.38,24.38,0,0,1,184,91.85a26.12,26.12,0,0,1-25.63,0,24.41,24.41,0,0,1-9.17-9.31,26.87,26.87,0,0,1-3.36-13.44,27.37,27.37,0,0,1,3.36-13.53,24.26,24.26,0,0,1,9.17-9.41,26.12,26.12,0,0,1,25.63,0,24.24,24.24,0,0,1,9.16,9.41,27.37,27.37,0,0,1,3.36,13.53A26.87,26.87,0,0,1,193.2,82.54Zm-7.92-22.7a16,16,0,0,0-5.85-6.33,16,16,0,0,0-16.41,0,15.94,15.94,0,0,0-5.86,6.33A19.5,19.5,0,0,0,155,69.1a19,19,0,0,0,2.16,9.12A16.1,16.1,0,0,0,163,84.51a16.09,16.09,0,0,0,16.41,0,16.15,16.15,0,0,0,5.85-6.29,19,19,0,0,0,2.16-9.12A19.5,19.5,0,0,0,185.28,59.84Z"/><path class="cls-1" d="M251.36,82.54a24.38,24.38,0,0,1-9.16,9.31,26.12,26.12,0,0,1-25.63,0,24.41,24.41,0,0,1-9.17-9.31A26.87,26.87,0,0,1,204,69.1a27.37,27.37,0,0,1,3.36-13.53,24.26,24.26,0,0,1,9.17-9.41,26.12,26.12,0,0,1,25.63,0,24.24,24.24,0,0,1,9.16,9.41,27.37,27.37,0,0,1,3.36,13.53A26.87,26.87,0,0,1,251.36,82.54Zm-7.92-22.7a16,16,0,0,0-5.85-6.33,16,16,0,0,0-16.41,0,15.94,15.94,0,0,0-5.86,6.33,19.5,19.5,0,0,0-2.16,9.26,19,19,0,0,0,2.16,9.12,16.1,16.1,0,0,0,5.86,6.29,16.09,16.09,0,0,0,16.41,0,16.15,16.15,0,0,0,5.85-6.29,19,19,0,0,0,2.16-9.12A19.5,19.5,0,0,0,243.44,59.84Z"/><path class="cls-1" d="M339.76,64V89.64A4.57,4.57,0,0,1,338.51,93a4.31,4.31,0,0,1-3.27,1.3,4.4,4.4,0,0,1-3.31-1.35,4.52,4.52,0,0,1-1.29-3.26V64.11q0-12.57-10.56-12.57a13.73,13.73,0,0,0-6.77,1.68,12.2,12.2,0,0,0-4.7,4.56,12.34,12.34,0,0,0-1.68,6.33V89.64a4.52,4.52,0,0,1-1.29,3.26,4.41,4.41,0,0,1-3.32,1.35,4.3,4.3,0,0,1-3.26-1.3,4.57,4.57,0,0,1-1.25-3.31V64q0-5.67-2.4-9.07t-8-3.41a12.85,12.85,0,0,0-9.36,3.6A11.92,11.92,0,0,0,274.4,64V89.64a4.53,4.53,0,0,1-1.3,3.26,4.39,4.39,0,0,1-3.31,1.35,4.32,4.32,0,0,1-3.27-1.3,4.56,4.56,0,0,1-1.24-3.31V48.56a4.54,4.54,0,0,1,1.29-3.26A4.29,4.29,0,0,1,269.79,44a4.38,4.38,0,0,1,3.31,1.34,4.55,4.55,0,0,1,1.3,3.26v3.36a20.86,20.86,0,0,1,6.67-6.28,17.06,17.06,0,0,1,9.07-2.55q11.89,0,15.45,10.56a20.24,20.24,0,0,1,7-7.29A18.37,18.37,0,0,1,323,43.09Q339.76,43.09,339.76,64Z"/><path class="cls-1" d="M397.49,44.58A4.61,4.61,0,0,1,398.78,48V89.64a4.52,4.52,0,0,1-1.29,3.26,4.41,4.41,0,0,1-3.32,1.35,4.3,4.3,0,0,1-3.26-1.3,4.57,4.57,0,0,1-1.25-3.31V87.15a20.5,20.5,0,0,1-6.81,5.71,19.24,19.24,0,0,1-9.31,2.35,21.75,21.75,0,0,1-11.85-3.36,23,23,0,0,1-8.35-9.36,29.47,29.47,0,0,1-3-13.48,29.51,29.51,0,0,1,3-13.49,23.13,23.13,0,0,1,8.3-9.36,21.19,21.19,0,0,1,11.61-3.36,21.46,21.46,0,0,1,9.46,2.12,19.45,19.45,0,0,1,7,5.37V48a4.75,4.75,0,0,1,1.25-3.36,4.23,4.23,0,0,1,3.26-1.35A4.52,4.52,0,0,1,397.49,44.58ZM382.61,84.46a15.62,15.62,0,0,0,5.47-6.34,21.86,21.86,0,0,0,0-18.14,16,16,0,0,0-5.47-6.38,14.12,14.12,0,0,0-8-2.35,14.32,14.32,0,0,0-8,2.3,15.55,15.55,0,0,0-5.47,6.34,22.07,22.07,0,0,0,0,18.23,15.55,15.55,0,0,0,5.47,6.34,15.12,15.12,0,0,0,16,0Z"/><path class="cls-1" d="M454.83,89.64a4.09,4.09,0,0,1-1.49,3.22,4.71,4.71,0,0,1-3.12,1.29,4.1,4.1,0,0,1-3.35-1.53L428,72.56l-5.76,5.18v11.9a4.49,4.49,0,0,1-1.3,3.26,4.26,4.26,0,0,1-3.21,1.35,4.39,4.39,0,0,1-3.31-1.35,4.49,4.49,0,0,1-1.3-3.26V27.83a4.5,4.5,0,0,1,1.3-3.26,4.38,4.38,0,0,1,3.31-1.34,4.25,4.25,0,0,1,3.21,1.34,4.5,4.5,0,0,1,1.3,3.26v39l23.51-21.6a5.07,5.07,0,0,1,3.36-1.44,4.08,4.08,0,0,1,3,1.4,4.19,4.19,0,0,1,1.34,2.92,4.48,4.48,0,0,1-1.82,3.46L435,66.32l18.43,20A4.84,4.84,0,0,1,454.83,89.64Z"/><path class="cls-1" d="M506.18,70.11a4.61,4.61,0,0,1-3.17,1.2H469.23a16.73,16.73,0,0,0,5.32,11.23,16.32,16.32,0,0,0,11.38,4.22,17.69,17.69,0,0,0,7.48-1.34A18.84,18.84,0,0,0,498.5,82a5.47,5.47,0,0,1,2.79-.86A3.63,3.63,0,0,1,504,82.25a3.76,3.76,0,0,1,1.1,2.69,4.77,4.77,0,0,1-1.91,3.65,22.8,22.8,0,0,1-7.4,4.7,24.21,24.21,0,0,1-9.4,1.92A27.9,27.9,0,0,1,472.73,92a22.87,22.87,0,0,1-9.12-9.12,27.09,27.09,0,0,1-3.21-13.25,29.14,29.14,0,0,1,3.31-14.15,24,24,0,0,1,8.73-9.36,22.47,22.47,0,0,1,23.18-.1,24.06,24.06,0,0,1,8.64,8.74,24.92,24.92,0,0,1,3.36,12.47A4.12,4.12,0,0,1,506.18,70.11ZM474.79,54.27q-3.93,3-5.18,9.36h28.32v-.77a11.73,11.73,0,0,0-4.56-8.35,14.46,14.46,0,0,0-9.26-3.26A14.9,14.9,0,0,0,474.79,54.27Z"/><path class="cls-1" d="M547.54,44.1a3.84,3.84,0,0,1,1.83,3.22,4.75,4.75,0,0,1-1.2,3.5,4,4,0,0,1-2.93,1.2,9,9,0,0,1-2.59-.58,11,11,0,0,0-3.17-.67,9.76,9.76,0,0,0-5.8,2.06,15.11,15.11,0,0,0-4.61,5.67,17.78,17.78,0,0,0-1.78,8V89.64A4.52,4.52,0,0,1,526,92.9a4.4,4.4,0,0,1-3.31,1.35,4.31,4.31,0,0,1-3.27-1.3,4.56,4.56,0,0,1-1.24-3.31V48.56a4.54,4.54,0,0,1,1.29-3.26A4.29,4.29,0,0,1,522.69,44,4.39,4.39,0,0,1,526,45.3a4.54,4.54,0,0,1,1.29,3.26v4.9a18.13,18.13,0,0,1,6.34-7.63,17,17,0,0,1,9.6-3A7.26,7.26,0,0,1,547.54,44.1Z"/><path class="cls-1" d="M200.62,3.67a32.71,32.71,0,0,0-32.41,28.27,3.89,3.89,0,0,0,3.84,4.43h.32a3.92,3.92,0,0,0,3.86-3.52c1.51-12.57,11.11-21.08,24.39-21.08S223.5,20.28,225,32.85a3.91,3.91,0,0,0,3.85,3.52h.32A3.9,3.9,0,0,0,233,31.94,32.71,32.71,0,0,0,200.62,3.67Z"/></svg>